{
  "asset": {
    "generator": "glTF-Transform v4.4.2",
    "version": "2.0"
  },
  "accessors": [
    {
      "type": "SCALAR",
      "componentType": 5123,
      "count": 16749,
      "bufferView": 0,
      "byteOffset": 0
    },
    {
      "type": "SCALAR",
      "componentType": 5123,
      "count": 108,
      "bufferView": 0,
      "byteOffset": 33500
    },
    {
      "type": "SCALAR",
      "componentType": 5123,
      "count": 6126,
      "bufferView": 0,
      "byteOffset": 33716
    },
    {
      "type": "SCALAR",
      "componentType": 5123,
      "count": 36,
      "bufferView": 0,
      "byteOffset": 45968
    },
    {
      "type": "SCALAR",
      "componentType": 5123,
      "count": 1944,
      "bufferView": 0,
      "byteOffset": 46040
    },
    {
      "type": "VEC3",
      "componentType": 5126,
      "count": 4580,
      "max": [
        0.1105310469865799,
        0.39147621393203735,
        0.11048129945993423
      ],
      "min": [
        -0.11051704734563828,
        -0.012800931930541992,
        -0.11054381728172302
      ],
      "bufferView": 1,
      "byteOffset": 0
    },
    {
      "type": "VEC3",
      "componentType": 5126,
      "count": 4580,
      "bufferView": 1,
      "byteOffset": 12
    },
    {
      "type": "VEC2",
      "componentType": 5126,
      "count": 4580,
      "bufferView": 1,
      "byteOffset": 24
    },
    {
      "type": "VEC3",
      "componentType": 5126,
      "count": 72,
      "max": [
        0.08997486531734467,
        0.2932339906692505,
        0.07384290546178818
      ],
      "min": [
        -0.08785565197467804,
        0.05231776461005211,
        -0.08789052069187164
      ],
      "bufferView": 2,
      "byteOffset": 0
    },
    {
      "type": "VEC3",
      "componentType": 5126,
      "count": 72,
      "bufferView": 2,
      "byteOffset": 12
    },
    {
      "type": "VEC2",
      "componentType": 5126,
      "count": 72,
      "bufferView": 2,
      "byteOffset": 24
    },
    {
      "type": "VEC3",
      "componentType": 5126,
      "count": 1718,
      "max": [
        0.009767673909664154,
        0.1553288698196411,
        0.035068873316049576
      ],
      "min": [
        -0.13467076420783997,
        -0.1553288847208023,
        -0.013177457265555859
      ],
      "bufferView": 3,
      "byteOffset": 0
    },
    {
      "type": "VEC3",
      "componentType": 5126,
      "count": 1718,
      "bufferView": 3,
      "byteOffset": 12
    },
    {
      "type": "VEC2",
      "componentType": 5126,
      "count": 1718,
      "bufferView": 3,
      "byteOffset": 24
    },
    {
      "type": "VEC3",
      "componentType": 5126,
      "count": 24,
      "max": [
        -0.0234233308583498,
        0.12268420308828354,
        0.0012011888902634382
      ],
      "min": [
        -0.10132565349340439,
        -0.11499588191509247,
        -0.001143501023761928
      ],
      "bufferView": 4,
      "byteOffset": 0
    },
    {
      "type": "VEC3",
      "componentType": 5126,
      "count": 24,
      "bufferView": 4,
      "byteOffset": 12
    },
    {
      "type": "VEC2",
      "componentType": 5126,
      "count": 24,
      "bufferView": 4,
      "byteOffset": 24
    },
    {
      "type": "VEC3",
      "componentType": 5126,
      "count": 425,
      "max": [
        0.09037286043167114,
        0.165908545255661,
        0.004363165237009525
      ],
      "min": [
        -0.08734405785799026,
        -0.0067346468567848206,
        -0.008794775232672691
      ],
      "bufferView": 5,
      "byteOffset": 0
    },
    {
      "type": "VEC3",
      "componentType": 5126,
      "count": 425,
      "bufferView": 5,
      "byteOffset": 12
    },
    {
      "type": "VEC2",
      "componentType": 5126,
      "count": 425,
      "bufferView": 5,
      "byteOffset": 24
    }
  ],
  "bufferViews": [
    {
      "buffer": 0,
      "byteOffset": 0,
      "byteLength": 49928,
      "target": 34963
    },
    {
      "buffer": 0,
      "byteOffset": 49928,
      "byteLength": 146560,
      "byteStride": 32,
      "target": 34962
    },
    {
      "buffer": 0,
      "byteOffset": 196488,
      "byteLength": 2304,
      "byteStride": 32,
      "target": 34962
    },
    {
      "buffer": 0,
      "byteOffset": 198792,
      "byteLength": 54976,
      "byteStride": 32,
      "target": 34962
    },
    {
      "buffer": 0,
      "byteOffset": 253768,
      "byteLength": 768,
      "byteStride": 32,
      "target": 34962
    },
    {
      "buffer": 0,
      "byteOffset": 254536,
      "byteLength": 13600,
      "byteStride": 32,
      "target": 34962
    }
  ],
  "samplers": [
    {
      "magFilter": 9729,
      "minFilter": 9987,
      "wrapS": 10497,
      "wrapT": 10497
    }
  ],
  "textures": [
    {
      "source": 1,
      "sampler": 0
    },
    {
      "source": 0,
      "sampler": 0
    },
    {
      "source": 2,
      "sampler": 0
    },
    {
      "source": 4,
      "sampler": 0
    },
    {
      "source": 3,
      "sampler": 0
    },
    {
      "source": 5,
      "sampler": 0
    }
  ],
  "images": [
    {
      "name": "wooden_lantern_01_nor_gl",
      "mimeType": "image/jpeg",
      "uri": "textures/wooden_lantern_01_nor_gl_1k.jpg"
    },
    {
      "name": "wooden_lantern_01_diff",
      "mimeType": "image/jpeg",
      "uri": "textures/wooden_lantern_01_diff_1k.jpg"
    },
    {
      "name": "wooden_lantern_01_metal-wooden_lantern_01_rough",
      "mimeType": "image/jpeg",
      "uri": "textures/wooden_lantern_01_arm_1k.jpg"
    },
    {
      "name": "wooden_lantern_01_glass_nor_gl",
      "mimeType": "image/jpeg",
      "uri": "textures/wooden_lantern_01_glass_nor_gl_1k.jpg"
    },
    {
      "name": "wooden_lantern_01_glass_diff-wooden_lantern_01_glass_opacity",
      "mimeType": "image/jpeg",
      "uri": "textures/wooden_lantern_01_glass_diff_1k.jpg"
    },
    {
      "name": "wooden_lantern_01_glass_metal-wooden_lantern_01_glass_rough",
      "mimeType": "image/jpeg",
      "uri": "textures/wooden_lantern_01_glass_arm_1k.jpg"
    }
  ],
  "buffers": [
    {
      "uri": "wooden_lantern_01.bin",
      "byteLength": 268136
    }
  ],
  "materials": [
    {
      "name": "wooden_lantern_01",
      "doubleSided": true,
      "pbrMetallicRoughness": {
        "baseColorTexture": {
          "index": 0
        },
        "metallicRoughnessTexture": {
          "index": 2
        }
      },
      "normalTexture": {
        "index": 1
      }
    },
    {
      "name": "wooden_lantern_01_glass",
      "alphaMode": "BLEND",
      "doubleSided": true,
      "pbrMetallicRoughness": {
        "baseColorTexture": {
          "index": 3
        },
        "metallicRoughnessTexture": {
          "index": 5
        }
      },
      "normalTexture": {
        "index": 4
      }
    }
  ],
  "meshes": [
    {
      "name": "Cube.001",
      "primitives": [
        {
          "attributes": {
            "POSITION": 5,
            "NORMAL": 6,
            "TEXCOORD_0": 7
          },
          "mode": 4,
          "material": 0,
          "indices": 0
        },
        {
          "attributes": {
            "POSITION": 8,
            "NORMAL": 9,
            "TEXCOORD_0": 10
          },
          "mode": 4,
          "material": 1,
          "indices": 1
        }
      ]
    },
    {
      "name": "Cube.004",
      "primitives": [
        {
          "attributes": {
            "POSITION": 11,
            "NORMAL": 12,
            "TEXCOORD_0": 13
          },
          "mode": 4,
          "material": 0,
          "indices": 2
        },
        {
          "attributes": {
            "POSITION": 14,
            "NORMAL": 15,
            "TEXCOORD_0": 16
          },
          "mode": 4,
          "material": 1,
          "indices": 3
        }
      ]
    },
    {
      "name": "Cylinder.031",
      "primitives": [
        {
          "attributes": {
            "POSITION": 17,
            "NORMAL": 18,
            "TEXCOORD_0": 19
          },
          "mode": 4,
          "material": 0,
          "indices": 4
        }
      ]
    }
  ],
  "nodes": [
    {
      "name": "wooden_lantern_01",
      "translation": [
        0,
        0.0014258272713050246,
        0
      ],
      "mesh": 0
    },
    {
      "name": "wooden_lantern_01_door",
      "translation": [
        0.06251434236764908,
        0.17132970690727234,
        0.08911173045635223
      ],
      "mesh": 1
    },
    {
      "name": "wooden_lantern_01_handle",
      "translation": [
        0.00005633384353131987,
        0.3528529107570648,
        0.00005396036431193352
      ],
      "mesh": 2
    }
  ],
  "scenes": [
    {
      "name": "Scene",
      "nodes": [
        0,
        1,
        2
      ]
    }
  ],
  "scene": 0
}