{
  "asset": {
    "generator": "glTF-Transform v4.4.2",
    "version": "2.0"
  },
  "accessors": [
    {
      "type": "SCALAR",
      "componentType": 5123,
      "count": 13452,
      "bufferView": 0,
      "byteOffset": 0
    },
    {
      "type": "SCALAR",
      "componentType": 5123,
      "count": 1896,
      "bufferView": 0,
      "byteOffset": 26904
    },
    {
      "type": "VEC3",
      "componentType": 5126,
      "count": 3606,
      "max": [
        0.17380821704864502,
        0.3491709232330322,
        0.17213965952396393
      ],
      "min": [
        -0.17317181825637817,
        0.00013674795627593994,
        -0.17008152604103088
      ],
      "bufferView": 1,
      "byteOffset": 0
    },
    {
      "type": "VEC3",
      "componentType": 5126,
      "count": 3606,
      "bufferView": 1,
      "byteOffset": 12
    },
    {
      "type": "VEC2",
      "componentType": 5126,
      "count": 3606,
      "bufferView": 1,
      "byteOffset": 24
    },
    {
      "type": "VEC3",
      "componentType": 5126,
      "count": 385,
      "max": [
        0.18252430856227875,
        0.22883063554763794,
        0.004410651046782732
      ],
      "min": [
        -0.1844465434551239,
        -0.007601439952850342,
        -0.003766037989407778
      ],
      "bufferView": 2,
      "byteOffset": 0
    },
    {
      "type": "VEC3",
      "componentType": 5126,
      "count": 385,
      "bufferView": 2,
      "byteOffset": 12
    },
    {
      "type": "VEC2",
      "componentType": 5126,
      "count": 385,
      "bufferView": 2,
      "byteOffset": 24
    }
  ],
  "bufferViews": [
    {
      "buffer": 0,
      "byteOffset": 0,
      "byteLength": 30696,
      "target": 34963
    },
    {
      "buffer": 0,
      "byteOffset": 30696,
      "byteLength": 115392,
      "byteStride": 32,
      "target": 34962
    },
    {
      "buffer": 0,
      "byteOffset": 146088,
      "byteLength": 12320,
      "byteStride": 32,
      "target": 34962
    }
  ],
  "samplers": [
    {
      "magFilter": 9729,
      "minFilter": 9987,
      "wrapS": 10497,
      "wrapT": 10497
    }
  ],
  "textures": [
    {
      "source": 1,
      "sampler": 0
    },
    {
      "source": 0,
      "sampler": 0
    },
    {
      "source": 2,
      "sampler": 0
    }
  ],
  "images": [
    {
      "name": "wooden_bucket_01_nor_gl",
      "mimeType": "image/jpeg",
      "uri": "textures/wooden_bucket_01_nor_gl_1k.jpg"
    },
    {
      "name": "wooden_bucket_01_diff",
      "mimeType": "image/jpeg",
      "uri": "textures/wooden_bucket_01_diff_1k.jpg"
    },
    {
      "name": "wooden_bucket_01_metal-wooden_bucket_01_rough",
      "mimeType": "image/jpeg",
      "uri": "textures/wooden_bucket_01_arm_1k.jpg"
    }
  ],
  "buffers": [
    {
      "uri": "wooden_bucket_01.bin",
      "byteLength": 158408
    }
  ],
  "materials": [
    {
      "name": "wooden_bucket_01",
      "doubleSided": true,
      "pbrMetallicRoughness": {
        "baseColorTexture": {
          "index": 0
        },
        "metallicRoughnessTexture": {
          "index": 2
        }
      },
      "normalTexture": {
        "index": 1
      }
    }
  ],
  "meshes": [
    {
      "name": "Cylinder",
      "primitives": [
        {
          "attributes": {
            "POSITION": 2,
            "NORMAL": 3,
            "TEXCOORD_0": 4
          },
          "mode": 4,
          "material": 0,
          "indices": 0
        }
      ]
    },
    {
      "name": "Plane",
      "primitives": [
        {
          "attributes": {
            "POSITION": 5,
            "NORMAL": 6,
            "TEXCOORD_0": 7
          },
          "mode": 4,
          "material": 0,
          "indices": 1
        }
      ]
    }
  ],
  "nodes": [
    {
      "name": "wooden_bucket_01",
      "translation": [
        -0.00012092795077478513,
        0,
        0.00012092784163542092
      ],
      "mesh": 0
    },
    {
      "name": "wooden_bucket_01_handle",
      "translation": [
        0,
        0.3211684823036194,
        0.00012092789256712422
      ],
      "mesh": 1
    }
  ],
  "scenes": [
    {
      "name": "Scene",
      "nodes": [
        0,
        1
      ]
    }
  ],
  "scene": 0
}