{
  "asset": {
    "generator": "glTF-Transform v4.4.2",
    "version": "2.0"
  },
  "accessors": [
    {
      "type": "SCALAR",
      "componentType": 5123,
      "count": 123138,
      "bufferView": 0,
      "byteOffset": 0
    },
    {
      "type": "VEC3",
      "componentType": 5126,
      "count": 22472,
      "max": [
        0.6411310434341431,
        0.37968912720680237,
        0.8298710584640503
      ],
      "min": [
        -0.7844194173812866,
        -0.1929784119129181,
        -0.7604432702064514
      ],
      "bufferView": 1,
      "byteOffset": 0
    },
    {
      "type": "VEC2",
      "componentType": 5126,
      "count": 22472,
      "bufferView": 1,
      "byteOffset": 12
    },
    {
      "type": "VEC3",
      "componentType": 5126,
      "count": 22472,
      "bufferView": 1,
      "byteOffset": 20
    }
  ],
  "bufferViews": [
    {
      "buffer": 0,
      "byteOffset": 0,
      "byteLength": 246276,
      "target": 34963
    },
    {
      "buffer": 0,
      "byteOffset": 246276,
      "byteLength": 719104,
      "byteStride": 32,
      "target": 34962
    }
  ],
  "samplers": [
    {
      "magFilter": 9729,
      "minFilter": 9987,
      "wrapS": 10497,
      "wrapT": 10497
    }
  ],
  "textures": [
    {
      "source": 1,
      "sampler": 0
    },
    {
      "source": 0,
      "sampler": 0
    },
    {
      "source": 2,
      "sampler": 0
    }
  ],
  "images": [
    {
      "name": "tree_stump_01_nor_gl",
      "mimeType": "image/jpeg",
      "uri": "textures/tree_stump_01_nor_gl_2k.jpg"
    },
    {
      "name": "tree_stump_01_diff",
      "mimeType": "image/jpeg",
      "uri": "textures/tree_stump_01_diff_2k.jpg"
    },
    {
      "name": "tree_stump_01_rough",
      "mimeType": "image/jpeg",
      "uri": "textures/tree_stump_01_arm_2k.jpg"
    }
  ],
  "buffers": [
    {
      "uri": "tree_stump_01.bin",
      "byteLength": 965380
    }
  ],
  "materials": [
    {
      "name": "tree_stump_01",
      "doubleSided": true,
      "pbrMetallicRoughness": {
        "metallicFactor": 0,
        "baseColorTexture": {
          "index": 0
        },
        "metallicRoughnessTexture": {
          "index": 2
        }
      },
      "normalTexture": {
        "index": 1
      }
    }
  ],
  "meshes": [
    {
      "name": "tt_01_rep.001",
      "primitives": [
        {
          "attributes": {
            "POSITION": 1,
            "TEXCOORD_0": 2,
            "NORMAL": 3
          },
          "mode": 4,
          "material": 0,
          "indices": 0
        }
      ]
    }
  ],
  "nodes": [
    {
      "name": "tree_stump_01",
      "mesh": 0
    }
  ],
  "scenes": [
    {
      "name": "Scene",
      "nodes": [
        0
      ]
    }
  ],
  "scene": 0
}