{
  "asset": {
    "generator": "glTF-Transform v4.4.2",
    "version": "2.0"
  },
  "accessors": [
    {
      "type": "SCALAR",
      "componentType": 5123,
      "count": 337887,
      "bufferView": 0,
      "byteOffset": 0
    },
    {
      "type": "VEC3",
      "componentType": 5126,
      "count": 60254,
      "max": [
        2.058250904083252,
        1.4638862609863281,
        1.6890140771865845
      ],
      "min": [
        -2.0644140243530273,
        -0.04539387673139572,
        -0.9937626123428345
      ],
      "bufferView": 1,
      "byteOffset": 0
    },
    {
      "type": "VEC3",
      "componentType": 5126,
      "count": 60254,
      "bufferView": 1,
      "byteOffset": 12
    },
    {
      "type": "VEC2",
      "componentType": 5126,
      "count": 60254,
      "bufferView": 1,
      "byteOffset": 24
    }
  ],
  "bufferViews": [
    {
      "buffer": 0,
      "byteOffset": 0,
      "byteLength": 675776,
      "target": 34963
    },
    {
      "buffer": 0,
      "byteOffset": 675776,
      "byteLength": 1928128,
      "byteStride": 32,
      "target": 34962
    }
  ],
  "samplers": [
    {
      "magFilter": 9729,
      "minFilter": 9987,
      "wrapS": 10497,
      "wrapT": 10497
    }
  ],
  "textures": [
    {
      "source": 1,
      "sampler": 0
    },
    {
      "source": 0,
      "sampler": 0
    },
    {
      "source": 2,
      "sampler": 0
    }
  ],
  "images": [
    {
      "name": "root_cluster_01_nor_gl",
      "mimeType": "image/jpeg",
      "uri": "textures/root_cluster_01_nor_gl_1k.jpg"
    },
    {
      "name": "root_cluster_01_diff",
      "mimeType": "image/jpeg",
      "uri": "textures/root_cluster_01_diff_1k.jpg"
    },
    {
      "name": "root_cluster_01_rough",
      "mimeType": "image/jpeg",
      "uri": "textures/root_cluster_01_arm_1k.jpg"
    }
  ],
  "buffers": [
    {
      "uri": "root_cluster_01.bin",
      "byteLength": 2603904
    }
  ],
  "materials": [
    {
      "name": "root_cluster_01",
      "doubleSided": true,
      "pbrMetallicRoughness": {
        "metallicFactor": 0,
        "baseColorTexture": {
          "index": 0
        },
        "metallicRoughnessTexture": {
          "index": 2
        }
      },
      "normalTexture": {
        "index": 1
      }
    }
  ],
  "meshes": [
    {
      "name": "root_cluster_5m.001",
      "primitives": [
        {
          "attributes": {
            "POSITION": 1,
            "NORMAL": 2,
            "TEXCOORD_0": 3
          },
          "mode": 4,
          "material": 0,
          "indices": 0
        }
      ]
    }
  ],
  "nodes": [
    {
      "name": "root_cluster_01",
      "mesh": 0
    }
  ],
  "scenes": [
    {
      "name": "Scene",
      "nodes": [
        0
      ]
    }
  ],
  "scene": 0
}