{
  "asset": {
    "generator": "glTF-Transform v4.4.2",
    "version": "2.0"
  },
  "accessors": [
    {
      "type": "SCALAR",
      "componentType": 5123,
      "count": 2076,
      "bufferView": 0,
      "byteOffset": 0
    },
    {
      "type": "SCALAR",
      "componentType": 5123,
      "count": 16524,
      "bufferView": 0,
      "byteOffset": 4152
    },
    {
      "type": "SCALAR",
      "componentType": 5123,
      "count": 1128,
      "bufferView": 0,
      "byteOffset": 37200
    },
    {
      "type": "VEC3",
      "componentType": 5126,
      "count": 596,
      "max": [
        0.3539096713066101,
        0.3416849374771118,
        0.1961396187543869
      ],
      "min": [
        -0.3539096713066101,
        0.29946234822273254,
        -0.1961396187543869
      ],
      "bufferView": 1,
      "byteOffset": 0
    },
    {
      "type": "VEC3",
      "componentType": 5126,
      "count": 596,
      "bufferView": 1,
      "byteOffset": 12
    },
    {
      "type": "VEC2",
      "componentType": 5126,
      "count": 596,
      "bufferView": 1,
      "byteOffset": 24
    },
    {
      "type": "VEC3",
      "componentType": 5126,
      "count": 3706,
      "max": [
        0.4126364588737488,
        0.3139750361442566,
        0.2128141224384308
      ],
      "min": [
        -0.4126364588737488,
        -0.00793334562331438,
        -0.19549614191055298
      ],
      "bufferView": 2,
      "byteOffset": 0
    },
    {
      "type": "VEC3",
      "componentType": 5126,
      "count": 3706,
      "bufferView": 2,
      "byteOffset": 12
    },
    {
      "type": "VEC2",
      "componentType": 5126,
      "count": 3706,
      "bufferView": 2,
      "byteOffset": 24
    },
    {
      "type": "VEC3",
      "componentType": 5126,
      "count": 384,
      "max": [
        0.009643923491239548,
        0.3357900381088257,
        0.2071036398410797
      ],
      "min": [
        -0.016070956364274025,
        0.2390938252210617,
        0.1312473714351654
      ],
      "bufferView": 3,
      "byteOffset": 0
    },
    {
      "type": "VEC3",
      "componentType": 5126,
      "count": 384,
      "bufferView": 3,
      "byteOffset": 12
    },
    {
      "type": "VEC2",
      "componentType": 5126,
      "count": 384,
      "bufferView": 3,
      "byteOffset": 24
    }
  ],
  "bufferViews": [
    {
      "buffer": 0,
      "byteOffset": 0,
      "byteLength": 39456,
      "target": 34963
    },
    {
      "buffer": 0,
      "byteOffset": 39456,
      "byteLength": 19072,
      "byteStride": 32,
      "target": 34962
    },
    {
      "buffer": 0,
      "byteOffset": 58528,
      "byteLength": 118592,
      "byteStride": 32,
      "target": 34962
    },
    {
      "buffer": 0,
      "byteOffset": 177120,
      "byteLength": 12288,
      "byteStride": 32,
      "target": 34962
    }
  ],
  "samplers": [
    {
      "magFilter": 9729,
      "minFilter": 9987,
      "wrapS": 10497,
      "wrapT": 10497
    }
  ],
  "textures": [
    {
      "source": 1,
      "sampler": 0
    },
    {
      "source": 0,
      "sampler": 0
    },
    {
      "source": 2,
      "sampler": 0
    }
  ],
  "images": [
    {
      "name": "wooden_crate_01_nor_gl",
      "mimeType": "image/jpeg",
      "uri": "textures/wooden_crate_01_nor_gl_1k.jpg"
    },
    {
      "name": "wooden_crate_01_diff",
      "mimeType": "image/jpeg",
      "uri": "textures/wooden_crate_01_diff_1k.jpg"
    },
    {
      "name": "wooden_crate_01_metal-wooden_crate_01_rough",
      "mimeType": "image/jpeg",
      "uri": "textures/wooden_crate_01_arm_1k.jpg"
    }
  ],
  "buffers": [
    {
      "uri": "wooden_crate_01.bin",
      "byteLength": 189408
    }
  ],
  "materials": [
    {
      "name": "wooden_crate_01",
      "doubleSided": true,
      "pbrMetallicRoughness": {
        "baseColorTexture": {
          "index": 0
        },
        "metallicRoughnessTexture": {
          "index": 2
        }
      },
      "normalTexture": {
        "index": 1
      }
    }
  ],
  "meshes": [
    {
      "name": "Cube.005",
      "primitives": [
        {
          "attributes": {
            "POSITION": 3,
            "NORMAL": 4,
            "TEXCOORD_0": 5
          },
          "mode": 4,
          "material": 0,
          "indices": 0
        }
      ]
    },
    {
      "name": "Cube.020",
      "primitives": [
        {
          "attributes": {
            "POSITION": 6,
            "NORMAL": 7,
            "TEXCOORD_0": 8
          },
          "mode": 4,
          "material": 0,
          "indices": 1
        }
      ]
    },
    {
      "name": "Cube.001",
      "primitives": [
        {
          "attributes": {
            "POSITION": 9,
            "NORMAL": 10,
            "TEXCOORD_0": 11
          },
          "mode": 4,
          "material": 0,
          "indices": 2
        }
      ]
    }
  ],
  "nodes": [
    {
      "name": "wooden_crate_01_lid",
      "mesh": 0
    },
    {
      "name": "wooden_crate_01",
      "mesh": 1
    },
    {
      "name": "wooden_crate_01_latch",
      "mesh": 2
    }
  ],
  "scenes": [
    {
      "name": "Scene",
      "nodes": [
        0,
        1,
        2
      ]
    }
  ],
  "scene": 0
}