{
  "asset": {
    "generator": "glTF-Transform v4.4.2",
    "version": "2.0"
  },
  "accessors": [
    {
      "type": "SCALAR",
      "componentType": 5123,
      "count": 234018,
      "bufferView": 0,
      "byteOffset": 0
    },
    {
      "type": "VEC3",
      "componentType": 5126,
      "count": 58631,
      "max": [
        0.13184572756290436,
        0.38722172379493713,
        0.10474707186222076
      ],
      "min": [
        -2.454815626144409,
        -0.008752564899623394,
        -0.11362715065479279
      ],
      "bufferView": 1,
      "byteOffset": 0
    },
    {
      "type": "VEC3",
      "componentType": 5126,
      "count": 58631,
      "bufferView": 1,
      "byteOffset": 12
    },
    {
      "type": "VEC2",
      "componentType": 5126,
      "count": 58631,
      "bufferView": 1,
      "byteOffset": 24
    }
  ],
  "bufferViews": [
    {
      "buffer": 0,
      "byteOffset": 0,
      "byteLength": 468036,
      "target": 34963
    },
    {
      "buffer": 0,
      "byteOffset": 468036,
      "byteLength": 1876192,
      "byteStride": 32,
      "target": 34962
    }
  ],
  "samplers": [
    {
      "magFilter": 9729,
      "minFilter": 9987,
      "wrapS": 10497,
      "wrapT": 10497
    }
  ],
  "textures": [
    {
      "source": 1,
      "sampler": 0
    },
    {
      "source": 0,
      "sampler": 0
    },
    {
      "source": 2,
      "sampler": 0
    }
  ],
  "images": [
    {
      "name": "shrub_01_nor_gl",
      "mimeType": "image/jpeg",
      "uri": "textures/shrub_01_nor_gl_1k.jpg"
    },
    {
      "name": "shrub_01_diff",
      "mimeType": "image/png",
      "uri": "textures/shrub_01_diff_1k.png"
    },
    {
      "name": "shrub_01_rough",
      "mimeType": "image/jpeg",
      "uri": "textures/shrub_01_arm_1k.jpg"
    }
  ],
  "buffers": [
    {
      "uri": "shrub_01.bin",
      "byteLength": 2344228
    }
  ],
  "materials": [
    {
      "name": "shrub_01",
      "alphaMode": "MASK",
      "alphaCutoff": 0.5,
      "doubleSided": true,
      "pbrMetallicRoughness": {
        "metallicFactor": 0,
        "baseColorTexture": {
          "index": 0
        },
        "metallicRoughnessTexture": {
          "index": 2
        }
      },
      "normalTexture": {
        "index": 1
      }
    }
  ],
  "meshes": [
    {
      "name": "Circle.010",
      "primitives": [
        {
          "attributes": {
            "POSITION": 1,
            "NORMAL": 2,
            "TEXCOORD_0": 3
          },
          "mode": 4,
          "material": 0,
          "indices": 0
        }
      ]
    }
  ],
  "nodes": [
    {
      "name": "shrub_01_a",
      "translation": [
        0.6002307534217834,
        0,
        0
      ],
      "mesh": 0
    }
  ],
  "scenes": [
    {
      "name": "Scene",
      "nodes": [
        0
      ]
    }
  ],
  "scene": 0
}