{
  "asset": {
    "generator": "glTF-Transform v4.4.2",
    "version": "2.0"
  },
  "accessors": [
    {
      "type": "SCALAR",
      "componentType": 5123,
      "count": 15750,
      "bufferView": 0,
      "byteOffset": 0
    },
    {
      "type": "VEC3",
      "componentType": 5126,
      "count": 4157,
      "max": [
        0.012804529629647732,
        0.22689877450466156,
        0.07712532579898834
      ],
      "min": [
        -0.013217705301940441,
        -0.06183049827814102,
        -0.027144843712449074
      ],
      "bufferView": 1,
      "byteOffset": 0
    },
    {
      "type": "VEC3",
      "componentType": 5126,
      "count": 4157,
      "bufferView": 1,
      "byteOffset": 12
    },
    {
      "type": "VEC2",
      "componentType": 5126,
      "count": 4157,
      "bufferView": 1,
      "byteOffset": 24
    }
  ],
  "bufferViews": [
    {
      "buffer": 0,
      "byteOffset": 0,
      "byteLength": 31500,
      "target": 34963
    },
    {
      "buffer": 0,
      "byteOffset": 31500,
      "byteLength": 133024,
      "byteStride": 32,
      "target": 34962
    }
  ],
  "samplers": [
    {
      "magFilter": 9729,
      "minFilter": 9987,
      "wrapS": 10497,
      "wrapT": 10497
    }
  ],
  "textures": [
    {
      "source": 1,
      "sampler": 0
    },
    {
      "source": 0,
      "sampler": 0
    },
    {
      "source": 2,
      "sampler": 0
    }
  ],
  "images": [
    {
      "name": "hatchet_nor_gl",
      "mimeType": "image/jpeg",
      "uri": "textures/hatchet_nor_gl_1k.jpg"
    },
    {
      "name": "hatchet_diff",
      "mimeType": "image/jpeg",
      "uri": "textures/hatchet_diff_1k.jpg"
    },
    {
      "name": "hatchet_metal-hatchet_rough",
      "mimeType": "image/jpeg",
      "uri": "textures/hatchet_arm_1k.jpg"
    }
  ],
  "buffers": [
    {
      "uri": "hatchet.bin",
      "byteLength": 164524
    }
  ],
  "materials": [
    {
      "name": "hatchet",
      "doubleSided": true,
      "pbrMetallicRoughness": {
        "baseColorTexture": {
          "index": 0
        },
        "metallicRoughnessTexture": {
          "index": 2
        }
      },
      "normalTexture": {
        "index": 1
      }
    }
  ],
  "meshes": [
    {
      "name": "Plane.002",
      "primitives": [
        {
          "attributes": {
            "POSITION": 1,
            "NORMAL": 2,
            "TEXCOORD_0": 3
          },
          "mode": 4,
          "material": 0,
          "indices": 0
        }
      ]
    }
  ],
  "nodes": [
    {
      "name": "hatchet",
      "mesh": 0
    }
  ],
  "scenes": [
    {
      "name": "Scene",
      "nodes": [
        0
      ]
    }
  ],
  "scene": 0
}