{
  "asset": {
    "generator": "glTF-Transform v4.4.2",
    "version": "2.0"
  },
  "accessors": [
    {
      "type": "SCALAR",
      "componentType": 5123,
      "count": 22770,
      "bufferView": 0,
      "byteOffset": 0
    },
    {
      "type": "SCALAR",
      "componentType": 5123,
      "count": 15726,
      "bufferView": 0,
      "byteOffset": 45540
    },
    {
      "type": "SCALAR",
      "componentType": 5123,
      "count": 27702,
      "bufferView": 0,
      "byteOffset": 76992
    },
    {
      "type": "SCALAR",
      "componentType": 5123,
      "count": 15564,
      "bufferView": 0,
      "byteOffset": 132396
    },
    {
      "type": "VEC3",
      "componentType": 5126,
      "count": 5125,
      "max": [
        0.6156559586524963,
        1.6821810007095337,
        0.42684367299079895
      ],
      "min": [
        -0.9439988136291504,
        -0.03012576885521412,
        -0.863244354724884
      ],
      "bufferView": 1,
      "byteOffset": 0
    },
    {
      "type": "VEC2",
      "componentType": 5126,
      "count": 5125,
      "bufferView": 1,
      "byteOffset": 12
    },
    {
      "type": "VEC3",
      "componentType": 5126,
      "count": 5125,
      "bufferView": 1,
      "byteOffset": 20
    },
    {
      "type": "VEC3",
      "componentType": 5126,
      "count": 3600,
      "max": [
        0.9647624492645264,
        1.0844767093658447,
        0.30848613381385803
      ],
      "min": [
        -0.4038015305995941,
        -0.10226154327392578,
        -1.0773800611495972
      ],
      "bufferView": 2,
      "byteOffset": 0
    },
    {
      "type": "VEC2",
      "componentType": 5126,
      "count": 3600,
      "bufferView": 2,
      "byteOffset": 12
    },
    {
      "type": "VEC3",
      "componentType": 5126,
      "count": 3600,
      "bufferView": 2,
      "byteOffset": 20
    },
    {
      "type": "VEC3",
      "componentType": 5126,
      "count": 6346,
      "max": [
        1.287977695465088,
        0.8719967007637024,
        0.24143657088279724
      ],
      "min": [
        -0.8910231590270996,
        -0.2947101294994354,
        -1.22649085521698
      ],
      "bufferView": 3,
      "byteOffset": 0
    },
    {
      "type": "VEC2",
      "componentType": 5126,
      "count": 6346,
      "bufferView": 3,
      "byteOffset": 12
    },
    {
      "type": "VEC3",
      "componentType": 5126,
      "count": 6346,
      "bufferView": 3,
      "byteOffset": 20
    },
    {
      "type": "VEC3",
      "componentType": 5126,
      "count": 3528,
      "max": [
        0.22877177596092224,
        1.153072476387024,
        0.5660104751586914
      ],
      "min": [
        -1.051486849784851,
        -0.09016040712594986,
        -0.41910019516944885
      ],
      "bufferView": 4,
      "byteOffset": 0
    },
    {
      "type": "VEC2",
      "componentType": 5126,
      "count": 3528,
      "bufferView": 4,
      "byteOffset": 12
    },
    {
      "type": "VEC3",
      "componentType": 5126,
      "count": 3528,
      "bufferView": 4,
      "byteOffset": 20
    }
  ],
  "bufferViews": [
    {
      "buffer": 0,
      "byteOffset": 0,
      "byteLength": 163524,
      "target": 34963
    },
    {
      "buffer": 0,
      "byteOffset": 163524,
      "byteLength": 164000,
      "byteStride": 32,
      "target": 34962
    },
    {
      "buffer": 0,
      "byteOffset": 327524,
      "byteLength": 115200,
      "byteStride": 32,
      "target": 34962
    },
    {
      "buffer": 0,
      "byteOffset": 442724,
      "byteLength": 203072,
      "byteStride": 32,
      "target": 34962
    },
    {
      "buffer": 0,
      "byteOffset": 645796,
      "byteLength": 112896,
      "byteStride": 32,
      "target": 34962
    }
  ],
  "samplers": [
    {
      "magFilter": 9729,
      "minFilter": 9987,
      "wrapS": 10497,
      "wrapT": 10497
    }
  ],
  "textures": [
    {
      "source": 1,
      "sampler": 0
    },
    {
      "source": 0,
      "sampler": 0
    },
    {
      "source": 2,
      "sampler": 0
    }
  ],
  "images": [
    {
      "name": "shrub_02_nor_gl",
      "mimeType": "image/jpeg",
      "uri": "textures/shrub_02_nor_gl_1k.jpg"
    },
    {
      "name": "shrub_02_diff",
      "mimeType": "image/png",
      "uri": "textures/shrub_02_diff_1k.png"
    },
    {
      "name": "shrub_02_rough",
      "mimeType": "image/jpeg",
      "uri": "textures/shrub_02_arm_1k.jpg"
    }
  ],
  "buffers": [
    {
      "uri": "shrub_02.bin",
      "byteLength": 758692
    }
  ],
  "materials": [
    {
      "name": "shrub_02",
      "alphaMode": "MASK",
      "alphaCutoff": 0.5,
      "doubleSided": true,
      "pbrMetallicRoughness": {
        "metallicFactor": 0,
        "baseColorTexture": {
          "index": 0
        },
        "metallicRoughnessTexture": {
          "index": 2
        }
      },
      "normalTexture": {
        "index": 1
      }
    }
  ],
  "meshes": [
    {
      "name": "Plane.024",
      "primitives": [
        {
          "attributes": {
            "POSITION": 4,
            "TEXCOORD_0": 5,
            "NORMAL": 6
          },
          "mode": 4,
          "material": 0,
          "indices": 0
        }
      ]
    },
    {
      "name": "Plane.029",
      "primitives": [
        {
          "attributes": {
            "POSITION": 7,
            "TEXCOORD_0": 8,
            "NORMAL": 9
          },
          "mode": 4,
          "material": 0,
          "indices": 1
        }
      ]
    },
    {
      "name": "Plane.041",
      "primitives": [
        {
          "attributes": {
            "POSITION": 10,
            "TEXCOORD_0": 11,
            "NORMAL": 12
          },
          "mode": 4,
          "material": 0,
          "indices": 2
        }
      ]
    },
    {
      "name": "Plane.036",
      "primitives": [
        {
          "attributes": {
            "POSITION": 13,
            "TEXCOORD_0": 14,
            "NORMAL": 15
          },
          "mode": 4,
          "material": 0,
          "indices": 3
        }
      ]
    }
  ],
  "nodes": [
    {
      "name": "shrub_02_a",
      "translation": [
        -1.5478131771087646,
        -0.005240630358457565,
        -0.02073405683040619
      ],
      "rotation": [
        0.12589912116527557,
        -0.6947680711746216,
        0.006097283214330673,
        0.708102822303772
      ],
      "mesh": 0
    },
    {
      "name": "shrub_02_b",
      "translation": [
        0.0007123738760128617,
        -0.006340932101011276,
        -0.01680799387395382
      ],
      "rotation": [
        0.08358937501907349,
        -0.746630847454071,
        0.26227879524230957,
        0.6056113243103027
      ],
      "mesh": 1
    },
    {
      "name": "shrub_02_c",
      "translation": [
        1.5559492111206055,
        -0.005484403111040592,
        -0.006101916544139385
      ],
      "rotation": [
        0.12648986279964447,
        -0.7129753232002258,
        0.3943961560726166,
        0.5657898783683777
      ],
      "mesh": 2
    },
    {
      "name": "shrub_02_d",
      "translation": [
        3.258664131164551,
        -0.004767145495861769,
        -0.005447957664728165
      ],
      "rotation": [
        0.047377295792102814,
        -0.7383221983909607,
        -0.300414502620697,
        0.60198575258255
      ],
      "mesh": 3
    }
  ],
  "scenes": [
    {
      "name": "Scene",
      "nodes": [
        0,
        1,
        2,
        3
      ]
    }
  ],
  "scene": 0
}