{
  "asset": {
    "generator": "glTF-Transform v4.4.2",
    "version": "2.0"
  },
  "accessors": [
    {
      "type": "SCALAR",
      "componentType": 5123,
      "count": 37248,
      "bufferView": 0,
      "byteOffset": 0
    },
    {
      "type": "VEC3",
      "componentType": 5126,
      "count": 6628,
      "max": [
        0.03727707266807556,
        0.03229531645774841,
        0.08356179296970367
      ],
      "min": [
        -0.036732789129018784,
        -0.0005740977358072996,
        -0.06106271967291832
      ],
      "bufferView": 1,
      "byteOffset": 0
    },
    {
      "type": "VEC3",
      "componentType": 5126,
      "count": 6628,
      "bufferView": 1,
      "byteOffset": 12
    },
    {
      "type": "VEC2",
      "componentType": 5126,
      "count": 6628,
      "bufferView": 1,
      "byteOffset": 24
    }
  ],
  "bufferViews": [
    {
      "buffer": 0,
      "byteOffset": 0,
      "byteLength": 74496,
      "target": 34963
    },
    {
      "buffer": 0,
      "byteOffset": 74496,
      "byteLength": 212096,
      "byteStride": 32,
      "target": 34962
    }
  ],
  "samplers": [
    {
      "magFilter": 9729,
      "minFilter": 9987,
      "wrapS": 10497,
      "wrapT": 10497
    }
  ],
  "textures": [
    {
      "source": 1,
      "sampler": 0
    },
    {
      "source": 0,
      "sampler": 0
    },
    {
      "source": 2,
      "sampler": 0
    }
  ],
  "images": [
    {
      "name": "rock_09_nor_gl",
      "mimeType": "image/jpeg",
      "uri": "textures/rock_09_nor_gl_1k.jpg"
    },
    {
      "name": "rock_09_diff",
      "mimeType": "image/jpeg",
      "uri": "textures/rock_09_diff_1k.jpg"
    },
    {
      "name": "rock_09_rough",
      "mimeType": "image/jpeg",
      "uri": "textures/rock_09_arm_1k.jpg"
    }
  ],
  "buffers": [
    {
      "uri": "rock_09.bin",
      "byteLength": 286592
    }
  ],
  "materials": [
    {
      "name": "rock_09",
      "doubleSided": true,
      "pbrMetallicRoughness": {
        "metallicFactor": 0,
        "baseColorTexture": {
          "index": 0
        },
        "metallicRoughnessTexture": {
          "index": 2
        }
      },
      "normalTexture": {
        "index": 1
      }
    }
  ],
  "meshes": [
    {
      "name": "realCap_Model_1",
      "primitives": [
        {
          "attributes": {
            "POSITION": 1,
            "NORMAL": 2,
            "TEXCOORD_0": 3
          },
          "mode": 4,
          "material": 0,
          "indices": 0
        }
      ]
    }
  ],
  "nodes": [
    {
      "name": "rock_09_LOD0",
      "mesh": 0
    }
  ],
  "scenes": [
    {
      "name": "Scene",
      "nodes": [
        0
      ]
    }
  ],
  "scene": 0
}