{
  "asset": {
    "generator": "glTF-Transform v4.4.2",
    "version": "2.0"
  },
  "accessors": [
    {
      "type": "SCALAR",
      "componentType": 5125,
      "count": 198366,
      "bufferView": 0,
      "byteOffset": 0
    },
    {
      "type": "VEC3",
      "componentType": 5126,
      "count": 67042,
      "max": [
        0.5239759087562561,
        0.9301872253417969,
        0.8818937540054321
      ],
      "min": [
        -0.7481597065925598,
        -0.07364296913146973,
        -0.9484404921531677
      ],
      "bufferView": 1,
      "byteOffset": 0
    },
    {
      "type": "VEC3",
      "componentType": 5126,
      "count": 67042,
      "bufferView": 1,
      "byteOffset": 12
    },
    {
      "type": "VEC2",
      "componentType": 5126,
      "count": 67042,
      "bufferView": 1,
      "byteOffset": 24
    }
  ],
  "bufferViews": [
    {
      "buffer": 0,
      "byteOffset": 0,
      "byteLength": 793464,
      "target": 34963
    },
    {
      "buffer": 0,
      "byteOffset": 793464,
      "byteLength": 2145344,
      "byteStride": 32,
      "target": 34962
    }
  ],
  "samplers": [
    {
      "magFilter": 9729,
      "minFilter": 9987,
      "wrapS": 10497,
      "wrapT": 10497
    }
  ],
  "textures": [
    {
      "source": 1,
      "sampler": 0
    },
    {
      "source": 0,
      "sampler": 0
    },
    {
      "source": 2,
      "sampler": 0
    }
  ],
  "images": [
    {
      "name": "boulder_01_nor_gl",
      "mimeType": "image/jpeg",
      "uri": "textures/boulder_01_nor_gl_2k.jpg"
    },
    {
      "name": "boulder_01_diff",
      "mimeType": "image/jpeg",
      "uri": "textures/boulder_01_diff_2k.jpg"
    },
    {
      "name": "boulder_01_rough",
      "mimeType": "image/jpeg",
      "uri": "textures/boulder_01_arm_2k.jpg"
    }
  ],
  "buffers": [
    {
      "uri": "boulder_01.bin",
      "byteLength": 2938808
    }
  ],
  "materials": [
    {
      "name": "boulder_01",
      "doubleSided": true,
      "pbrMetallicRoughness": {
        "metallicFactor": 0,
        "baseColorTexture": {
          "index": 0
        },
        "metallicRoughnessTexture": {
          "index": 2
        }
      },
      "normalTexture": {
        "index": 1
      }
    }
  ],
  "meshes": [
    {
      "name": "rock_PROXY_5m.002",
      "primitives": [
        {
          "attributes": {
            "POSITION": 1,
            "NORMAL": 2,
            "TEXCOORD_0": 3
          },
          "mode": 4,
          "material": 0,
          "indices": 0
        }
      ]
    }
  ],
  "nodes": [
    {
      "name": "boulder_01",
      "mesh": 0
    }
  ],
  "scenes": [
    {
      "name": "Scene",
      "nodes": [
        0
      ]
    }
  ],
  "scene": 0
}