{
  "asset": {
    "generator": "glTF-Transform v4.4.2",
    "version": "2.0"
  },
  "accessors": [
    {
      "type": "SCALAR",
      "componentType": 5123,
      "count": 33000,
      "bufferView": 0,
      "byteOffset": 0
    },
    {
      "type": "SCALAR",
      "componentType": 5123,
      "count": 32988,
      "bufferView": 0,
      "byteOffset": 66000
    },
    {
      "type": "SCALAR",
      "componentType": 5123,
      "count": 15000,
      "bufferView": 0,
      "byteOffset": 131976
    },
    {
      "type": "SCALAR",
      "componentType": 5123,
      "count": 31767,
      "bufferView": 0,
      "byteOffset": 161976
    },
    {
      "type": "SCALAR",
      "componentType": 5123,
      "count": 49644,
      "bufferView": 0,
      "byteOffset": 225512
    },
    {
      "type": "SCALAR",
      "componentType": 5123,
      "count": 26982,
      "bufferView": 0,
      "byteOffset": 324800
    },
    {
      "type": "VEC3",
      "componentType": 5126,
      "count": 6078,
      "max": [
        1.1236112117767334,
        0.8161294460296631,
        1.6677640676498413
      ],
      "min": [
        -1.1140209436416626,
        -0.6565686464309692,
        -1.701040267944336
      ],
      "bufferView": 1,
      "byteOffset": 0
    },
    {
      "type": "VEC3",
      "componentType": 5126,
      "count": 6078,
      "bufferView": 1,
      "byteOffset": 12
    },
    {
      "type": "VEC2",
      "componentType": 5126,
      "count": 6078,
      "bufferView": 1,
      "byteOffset": 24
    },
    {
      "type": "VEC3",
      "componentType": 5126,
      "count": 6192,
      "max": [
        1.3823258876800537,
        0.7963716983795166,
        1.619305968284607
      ],
      "min": [
        -1.2730549573898315,
        -0.4656194746494293,
        -1.6444144248962402
      ],
      "bufferView": 2,
      "byteOffset": 0
    },
    {
      "type": "VEC3",
      "componentType": 5126,
      "count": 6192,
      "bufferView": 2,
      "byteOffset": 12
    },
    {
      "type": "VEC2",
      "componentType": 5126,
      "count": 6192,
      "bufferView": 2,
      "byteOffset": 24
    },
    {
      "type": "VEC3",
      "componentType": 5126,
      "count": 2741,
      "max": [
        1.0905829668045044,
        0.6888222694396973,
        1.0559659004211426
      ],
      "min": [
        -1.0179996490478516,
        -0.4108721911907196,
        -1.0236197710037231
      ],
      "bufferView": 3,
      "byteOffset": 0
    },
    {
      "type": "VEC3",
      "componentType": 5126,
      "count": 2741,
      "bufferView": 3,
      "byteOffset": 12
    },
    {
      "type": "VEC2",
      "componentType": 5126,
      "count": 2741,
      "bufferView": 3,
      "byteOffset": 24
    },
    {
      "type": "VEC3",
      "componentType": 5126,
      "count": 5691,
      "max": [
        1.1773505210876465,
        1.1073492765426636,
        1.0773223638534546
      ],
      "min": [
        -0.9502788186073303,
        -0.6609705686569214,
        -0.8874189853668213
      ],
      "bufferView": 4,
      "byteOffset": 0
    },
    {
      "type": "VEC3",
      "componentType": 5126,
      "count": 5691,
      "bufferView": 4,
      "byteOffset": 12
    },
    {
      "type": "VEC2",
      "componentType": 5126,
      "count": 5691,
      "bufferView": 4,
      "byteOffset": 24
    },
    {
      "type": "VEC3",
      "componentType": 5126,
      "count": 8538,
      "max": [
        0.9566551446914673,
        0.6328962445259094,
        1.6477245092391968
      ],
      "min": [
        -0.8606676459312439,
        -0.5725544691085815,
        -1.3509392738342285
      ],
      "bufferView": 5,
      "byteOffset": 0
    },
    {
      "type": "VEC3",
      "componentType": 5126,
      "count": 8538,
      "bufferView": 5,
      "byteOffset": 12
    },
    {
      "type": "VEC2",
      "componentType": 5126,
      "count": 8538,
      "bufferView": 5,
      "byteOffset": 24
    },
    {
      "type": "VEC3",
      "componentType": 5126,
      "count": 4748,
      "max": [
        0.9252050518989563,
        0.7337960004806519,
        1.277156949043274
      ],
      "min": [
        -1.2007771730422974,
        -0.5280566811561584,
        -1.4801461696624756
      ],
      "bufferView": 6,
      "byteOffset": 0
    },
    {
      "type": "VEC3",
      "componentType": 5126,
      "count": 4748,
      "bufferView": 6,
      "byteOffset": 12
    },
    {
      "type": "VEC2",
      "componentType": 5126,
      "count": 4748,
      "bufferView": 6,
      "byteOffset": 24
    }
  ],
  "bufferViews": [
    {
      "buffer": 0,
      "byteOffset": 0,
      "byteLength": 378764,
      "target": 34963
    },
    {
      "buffer": 0,
      "byteOffset": 378764,
      "byteLength": 194496,
      "byteStride": 32,
      "target": 34962
    },
    {
      "buffer": 0,
      "byteOffset": 573260,
      "byteLength": 198144,
      "byteStride": 32,
      "target": 34962
    },
    {
      "buffer": 0,
      "byteOffset": 771404,
      "byteLength": 87712,
      "byteStride": 32,
      "target": 34962
    },
    {
      "buffer": 0,
      "byteOffset": 859116,
      "byteLength": 182112,
      "byteStride": 32,
      "target": 34962
    },
    {
      "buffer": 0,
      "byteOffset": 1041228,
      "byteLength": 273216,
      "byteStride": 32,
      "target": 34962
    },
    {
      "buffer": 0,
      "byteOffset": 1314444,
      "byteLength": 151936,
      "byteStride": 32,
      "target": 34962
    }
  ],
  "samplers": [
    {
      "magFilter": 9729,
      "minFilter": 9987,
      "wrapS": 10497,
      "wrapT": 10497
    }
  ],
  "textures": [
    {
      "source": 1,
      "sampler": 0
    },
    {
      "source": 0,
      "sampler": 0
    },
    {
      "source": 2,
      "sampler": 0
    }
  ],
  "images": [
    {
      "name": "rock_moss_set_01_nor_gl",
      "mimeType": "image/jpeg",
      "uri": "textures/rock_moss_set_01_nor_gl_1k.jpg"
    },
    {
      "name": "rock_moss_set_01_diff",
      "mimeType": "image/jpeg",
      "uri": "textures/rock_moss_set_01_diff_1k.jpg"
    },
    {
      "name": "rock_moss_set_01_rough",
      "mimeType": "image/jpeg",
      "uri": "textures/rock_moss_set_01_rough_1k.jpg"
    }
  ],
  "buffers": [
    {
      "uri": "rock_moss_set_01.bin",
      "byteLength": 1466380
    }
  ],
  "materials": [
    {
      "name": "rock_moss_set_01",
      "doubleSided": true,
      "pbrMetallicRoughness": {
        "metallicFactor": 0,
        "baseColorTexture": {
          "index": 0
        },
        "metallicRoughnessTexture": {
          "index": 2
        }
      },
      "normalTexture": {
        "index": 1
      }
    }
  ],
  "meshes": [
    {
      "name": "modelShape.005",
      "primitives": [
        {
          "attributes": {
            "POSITION": 6,
            "NORMAL": 7,
            "TEXCOORD_0": 8
          },
          "mode": 4,
          "material": 0,
          "indices": 0
        }
      ]
    },
    {
      "name": "modelShape.002",
      "primitives": [
        {
          "attributes": {
            "POSITION": 9,
            "NORMAL": 10,
            "TEXCOORD_0": 11
          },
          "mode": 4,
          "material": 0,
          "indices": 1
        }
      ]
    },
    {
      "name": "modelShape",
      "primitives": [
        {
          "attributes": {
            "POSITION": 12,
            "NORMAL": 13,
            "TEXCOORD_0": 14
          },
          "mode": 4,
          "material": 0,
          "indices": 2
        }
      ]
    },
    {
      "name": "medium.001",
      "primitives": [
        {
          "attributes": {
            "POSITION": 15,
            "NORMAL": 16,
            "TEXCOORD_0": 17
          },
          "mode": 4,
          "material": 0,
          "indices": 3
        }
      ]
    },
    {
      "name": "modelShape.003",
      "primitives": [
        {
          "attributes": {
            "POSITION": 18,
            "NORMAL": 19,
            "TEXCOORD_0": 20
          },
          "mode": 4,
          "material": 0,
          "indices": 4
        }
      ]
    },
    {
      "name": "mesh1-geometry.003",
      "primitives": [
        {
          "attributes": {
            "POSITION": 21,
            "NORMAL": 22,
            "TEXCOORD_0": 23
          },
          "mode": 4,
          "material": 0,
          "indices": 5
        }
      ]
    }
  ],
  "nodes": [
    {
      "name": "rock_moss_set_01_rock01",
      "translation": [
        -2.799999952316284,
        0,
        -2.122781276702881
      ],
      "mesh": 0
    },
    {
      "name": "rock_moss_set_01_rock02",
      "translation": [
        0,
        0,
        -2.122781276702881
      ],
      "mesh": 1
    },
    {
      "name": "rock_moss_set_01_rock03",
      "translation": [
        3,
        0,
        -2.122781276702881
      ],
      "mesh": 2
    },
    {
      "name": "rock_moss_set_01_rock04",
      "translation": [
        -2.700000047683716,
        0,
        1.5772186517715454
      ],
      "mesh": 3
    },
    {
      "name": "rock_moss_set_01_rock05",
      "translation": [
        0.15000000596046448,
        0,
        1.4772186279296875
      ],
      "mesh": 4
    },
    {
      "name": "rock_moss_set_01_rock06",
      "translation": [
        2.799999952316284,
        0,
        1.5772186517715454
      ],
      "mesh": 5
    }
  ],
  "scenes": [
    {
      "name": "Scene",
      "nodes": [
        0,
        1,
        2,
        3,
        4,
        5
      ]
    }
  ],
  "scene": 0
}