{
  "asset": {
    "generator": "glTF-Transform v4.4.2",
    "version": "2.0"
  },
  "accessors": [
    {
      "type": "SCALAR",
      "componentType": 5123,
      "count": 183081,
      "bufferView": 0,
      "byteOffset": 0
    },
    {
      "type": "VEC4",
      "componentType": 5126,
      "count": 32202,
      "bufferView": 1,
      "byteOffset": 0
    },
    {
      "type": "VEC3",
      "componentType": 5126,
      "count": 32202,
      "max": [
        0.32745280861854553,
        0.09654310345649719,
        2.0888829231262207
      ],
      "min": [
        -0.22770962119102478,
        -0.08137246966362,
        0.2529293894767761
      ],
      "bufferView": 1,
      "byteOffset": 16
    },
    {
      "type": "VEC3",
      "componentType": 5126,
      "count": 32202,
      "bufferView": 1,
      "byteOffset": 28
    },
    {
      "type": "VEC2",
      "componentType": 5126,
      "count": 32202,
      "bufferView": 1,
      "byteOffset": 40
    }
  ],
  "bufferViews": [
    {
      "buffer": 0,
      "byteOffset": 0,
      "byteLength": 366164,
      "target": 34963
    },
    {
      "buffer": 0,
      "byteOffset": 366164,
      "byteLength": 1545696,
      "byteStride": 48,
      "target": 34962
    }
  ],
  "samplers": [
    {
      "magFilter": 9729,
      "minFilter": 9987,
      "wrapS": 10497,
      "wrapT": 10497
    }
  ],
  "textures": [
    {
      "source": 1,
      "sampler": 0
    },
    {
      "source": 0,
      "sampler": 0
    },
    {
      "source": 2,
      "sampler": 0
    }
  ],
  "images": [
    {
      "name": "single_root_nor_gl",
      "mimeType": "image/jpeg",
      "uri": "textures/single_root_nor_gl_1k.jpg"
    },
    {
      "name": "single_root_diff",
      "mimeType": "image/jpeg",
      "uri": "textures/single_root_diff_1k.jpg"
    },
    {
      "name": "single_root_rough",
      "mimeType": "image/jpeg",
      "uri": "textures/single_root_arm_1k.jpg"
    }
  ],
  "buffers": [
    {
      "uri": "single_root.bin",
      "byteLength": 1911860
    }
  ],
  "materials": [
    {
      "name": "single_root",
      "doubleSided": true,
      "pbrMetallicRoughness": {
        "metallicFactor": 0,
        "baseColorTexture": {
          "index": 0
        },
        "metallicRoughnessTexture": {
          "index": 2
        }
      },
      "normalTexture": {
        "index": 1
      }
    }
  ],
  "meshes": [
    {
      "name": "realCap_Model_7",
      "primitives": [
        {
          "attributes": {
            "COLOR_0": 1,
            "POSITION": 2,
            "NORMAL": 3,
            "TEXCOORD_0": 4
          },
          "mode": 4,
          "material": 0,
          "indices": 0
        }
      ]
    }
  ],
  "nodes": [
    {
      "name": "single_root",
      "mesh": 0
    }
  ],
  "scenes": [
    {
      "name": "Scene",
      "nodes": [
        0
      ]
    }
  ],
  "scene": 0
}