{
  "asset": {
    "generator": "glTF-Transform v4.4.2",
    "version": "2.0"
  },
  "accessors": [
    {
      "type": "SCALAR",
      "componentType": 5123,
      "count": 72,
      "bufferView": 0,
      "byteOffset": 0
    },
    {
      "type": "SCALAR",
      "componentType": 5123,
      "count": 48,
      "bufferView": 0,
      "byteOffset": 144
    },
    {
      "type": "SCALAR",
      "componentType": 5123,
      "count": 60,
      "bufferView": 0,
      "byteOffset": 240
    },
    {
      "type": "SCALAR",
      "componentType": 5123,
      "count": 60,
      "bufferView": 0,
      "byteOffset": 360
    },
    {
      "type": "SCALAR",
      "componentType": 5123,
      "count": 48,
      "bufferView": 0,
      "byteOffset": 480
    },
    {
      "type": "SCALAR",
      "componentType": 5123,
      "count": 48,
      "bufferView": 0,
      "byteOffset": 576
    },
    {
      "type": "SCALAR",
      "componentType": 5123,
      "count": 72,
      "bufferView": 0,
      "byteOffset": 672
    },
    {
      "type": "SCALAR",
      "componentType": 5123,
      "count": 18,
      "bufferView": 0,
      "byteOffset": 816
    },
    {
      "type": "SCALAR",
      "componentType": 5123,
      "count": 18,
      "bufferView": 0,
      "byteOffset": 852
    },
    {
      "type": "SCALAR",
      "componentType": 5123,
      "count": 24,
      "bufferView": 0,
      "byteOffset": 888
    },
    {
      "type": "SCALAR",
      "componentType": 5123,
      "count": 72,
      "bufferView": 0,
      "byteOffset": 936
    },
    {
      "type": "SCALAR",
      "componentType": 5123,
      "count": 72,
      "bufferView": 0,
      "byteOffset": 1080
    },
    {
      "type": "VEC3",
      "componentType": 5126,
      "count": 24,
      "max": [
        0.00439482694491744,
        0.027747370302677155,
        0.0048323022201657295
      ],
      "min": [
        -0.013785145245492458,
        8.761583103478188e-8,
        -0.009170814417302608
      ],
      "bufferView": 1,
      "byteOffset": 0
    },
    {
      "type": "VEC3",
      "componentType": 5126,
      "count": 24,
      "bufferView": 1,
      "byteOffset": 12
    },
    {
      "type": "VEC2",
      "componentType": 5126,
      "count": 24,
      "bufferView": 1,
      "byteOffset": 24
    },
    {
      "type": "VEC3",
      "componentType": 5126,
      "count": 16,
      "max": [
        0.0066835153847932816,
        0.02325499802827835,
        0.008718956261873245
      ],
      "min": [
        -0.0068742805160582066,
        -0.003464906709268689,
        -0.006917863618582487
      ],
      "bufferView": 2,
      "byteOffset": 0
    },
    {
      "type": "VEC3",
      "componentType": 5126,
      "count": 16,
      "bufferView": 2,
      "byteOffset": 12
    },
    {
      "type": "VEC2",
      "componentType": 5126,
      "count": 16,
      "bufferView": 2,
      "byteOffset": 24
    },
    {
      "type": "VEC3",
      "componentType": 5126,
      "count": 19,
      "max": [
        0.004220020025968552,
        0.02159985899925232,
        0.0080511923879385
      ],
      "min": [
        -0.006936457473784685,
        0,
        -0.004655787721276283
      ],
      "bufferView": 3,
      "byteOffset": 0
    },
    {
      "type": "VEC3",
      "componentType": 5126,
      "count": 19,
      "bufferView": 3,
      "byteOffset": 12
    },
    {
      "type": "VEC2",
      "componentType": 5126,
      "count": 19,
      "bufferView": 3,
      "byteOffset": 24
    },
    {
      "type": "VEC3",
      "componentType": 5126,
      "count": 19,
      "max": [
        0.005992166232317686,
        0.03005094639956951,
        0.006334646139293909
      ],
      "min": [
        -0.006777194328606129,
        0,
        -0.006678146775811911
      ],
      "bufferView": 4,
      "byteOffset": 0
    },
    {
      "type": "VEC3",
      "componentType": 5126,
      "count": 19,
      "bufferView": 4,
      "byteOffset": 12
    },
    {
      "type": "VEC2",
      "componentType": 5126,
      "count": 19,
      "bufferView": 4,
      "byteOffset": 24
    },
    {
      "type": "VEC3",
      "componentType": 5126,
      "count": 16,
      "max": [
        0.005255779717117548,
        0.014765322208404541,
        0.004435925744473934
      ],
      "min": [
        -0.00424335477873683,
        0,
        -0.005079510621726513
      ],
      "bufferView": 5,
      "byteOffset": 0
    },
    {
      "type": "VEC3",
      "componentType": 5126,
      "count": 16,
      "bufferView": 5,
      "byteOffset": 12
    },
    {
      "type": "VEC2",
      "componentType": 5126,
      "count": 16,
      "bufferView": 5,
      "byteOffset": 24
    },
    {
      "type": "VEC3",
      "componentType": 5126,
      "count": 16,
      "max": [
        0.006538619752973318,
        0.021551793441176414,
        0.005561012774705887
      ],
      "min": [
        -0.006349573843181133,
        -4.737362147011481e-8,
        -0.003914110362529755
      ],
      "bufferView": 6,
      "byteOffset": 0
    },
    {
      "type": "VEC3",
      "componentType": 5126,
      "count": 16,
      "bufferView": 6,
      "byteOffset": 12
    },
    {
      "type": "VEC2",
      "componentType": 5126,
      "count": 16,
      "bufferView": 6,
      "byteOffset": 24
    },
    {
      "type": "VEC3",
      "componentType": 5126,
      "count": 24,
      "max": [
        0.005321514327079058,
        0.025953780859708786,
        0.005851235240697861
      ],
      "min": [
        -0.00888559315353632,
        0,
        -0.010091456584632397
      ],
      "bufferView": 7,
      "byteOffset": 0
    },
    {
      "type": "VEC3",
      "componentType": 5126,
      "count": 24,
      "bufferView": 7,
      "byteOffset": 12
    },
    {
      "type": "VEC2",
      "componentType": 5126,
      "count": 24,
      "bufferView": 7,
      "byteOffset": 24
    },
    {
      "type": "VEC3",
      "componentType": 5126,
      "count": 7,
      "max": [
        0.004918911028653383,
        0.017582479864358902,
        -1.9397636275009233e-10
      ],
      "min": [
        -0.005758685525506735,
        3.8795272550018467e-10,
        -0.005749505944550037
      ],
      "bufferView": 8,
      "byteOffset": 0
    },
    {
      "type": "VEC3",
      "componentType": 5126,
      "count": 7,
      "bufferView": 8,
      "byteOffset": 12
    },
    {
      "type": "VEC2",
      "componentType": 5126,
      "count": 7,
      "bufferView": 8,
      "byteOffset": 24
    },
    {
      "type": "VEC3",
      "componentType": 5126,
      "count": 7,
      "max": [
        0.01592414826154709,
        0.014728115871548653,
        0.006876013241708279
      ],
      "min": [
        -0.0005590105429291725,
        4.2302639169378153e-10,
        -0.005873300600796938
      ],
      "bufferView": 9,
      "byteOffset": 0
    },
    {
      "type": "VEC3",
      "componentType": 5126,
      "count": 7,
      "bufferView": 9,
      "byteOffset": 12
    },
    {
      "type": "VEC2",
      "componentType": 5126,
      "count": 7,
      "bufferView": 9,
      "byteOffset": 24
    },
    {
      "type": "VEC3",
      "componentType": 5126,
      "count": 8,
      "max": [
        0.004133597016334534,
        0.006863008253276348,
        0.019197257235646248
      ],
      "min": [
        -0.01247353944927454,
        -0.002142798388376832,
        0.00040520812035538256
      ],
      "bufferView": 10,
      "byteOffset": 0
    },
    {
      "type": "VEC3",
      "componentType": 5126,
      "count": 8,
      "bufferView": 10,
      "byteOffset": 12
    },
    {
      "type": "VEC2",
      "componentType": 5126,
      "count": 8,
      "bufferView": 10,
      "byteOffset": 24
    },
    {
      "type": "VEC3",
      "componentType": 5126,
      "count": 24,
      "max": [
        0.01813471131026745,
        0.0331893153488636,
        0.00380225689150393
      ],
      "min": [
        -0.0032881502993404865,
        -0.0004045230452902615,
        -0.007507700473070145
      ],
      "bufferView": 11,
      "byteOffset": 0
    },
    {
      "type": "VEC3",
      "componentType": 5126,
      "count": 24,
      "bufferView": 11,
      "byteOffset": 12
    },
    {
      "type": "VEC2",
      "componentType": 5126,
      "count": 24,
      "bufferView": 11,
      "byteOffset": 24
    },
    {
      "type": "VEC3",
      "componentType": 5126,
      "count": 24,
      "max": [
        0.005792519543319941,
        0.036823973059654236,
        0.006062100175768137
      ],
      "min": [
        -0.011904767714440823,
        -0.0004045230452902615,
        -0.005704944953322411
      ],
      "bufferView": 12,
      "byteOffset": 0
    },
    {
      "type": "VEC3",
      "componentType": 5126,
      "count": 24,
      "bufferView": 12,
      "byteOffset": 12
    },
    {
      "type": "VEC2",
      "componentType": 5126,
      "count": 24,
      "bufferView": 12,
      "byteOffset": 24
    }
  ],
  "bufferViews": [
    {
      "buffer": 0,
      "byteOffset": 0,
      "byteLength": 1224,
      "target": 34963
    },
    {
      "buffer": 0,
      "byteOffset": 1224,
      "byteLength": 768,
      "byteStride": 32,
      "target": 34962
    },
    {
      "buffer": 0,
      "byteOffset": 1992,
      "byteLength": 512,
      "byteStride": 32,
      "target": 34962
    },
    {
      "buffer": 0,
      "byteOffset": 2504,
      "byteLength": 608,
      "byteStride": 32,
      "target": 34962
    },
    {
      "buffer": 0,
      "byteOffset": 3112,
      "byteLength": 608,
      "byteStride": 32,
      "target": 34962
    },
    {
      "buffer": 0,
      "byteOffset": 3720,
      "byteLength": 512,
      "byteStride": 32,
      "target": 34962
    },
    {
      "buffer": 0,
      "byteOffset": 4232,
      "byteLength": 512,
      "byteStride": 32,
      "target": 34962
    },
    {
      "buffer": 0,
      "byteOffset": 4744,
      "byteLength": 768,
      "byteStride": 32,
      "target": 34962
    },
    {
      "buffer": 0,
      "byteOffset": 5512,
      "byteLength": 224,
      "byteStride": 32,
      "target": 34962
    },
    {
      "buffer": 0,
      "byteOffset": 5736,
      "byteLength": 224,
      "byteStride": 32,
      "target": 34962
    },
    {
      "buffer": 0,
      "byteOffset": 5960,
      "byteLength": 256,
      "byteStride": 32,
      "target": 34962
    },
    {
      "buffer": 0,
      "byteOffset": 6216,
      "byteLength": 768,
      "byteStride": 32,
      "target": 34962
    },
    {
      "buffer": 0,
      "byteOffset": 6984,
      "byteLength": 768,
      "byteStride": 32,
      "target": 34962
    }
  ],
  "samplers": [
    {
      "magFilter": 9729,
      "minFilter": 9987,
      "wrapS": 10497,
      "wrapT": 10497
    }
  ],
  "textures": [
    {
      "source": 1,
      "sampler": 0
    },
    {
      "source": 0,
      "sampler": 0
    },
    {
      "source": 2,
      "sampler": 0
    }
  ],
  "images": [
    {
      "name": "moss_01_nor_gl",
      "mimeType": "image/jpeg",
      "uri": "textures/moss_01_nor_gl_1k.jpg"
    },
    {
      "name": "moss_01_diff-moss_01_alpha",
      "mimeType": "image/png",
      "uri": "textures/moss_01_diff_1k.png"
    },
    {
      "name": "moss_01_rough",
      "mimeType": "image/jpeg",
      "uri": "textures/moss_01_arm_1k.jpg"
    }
  ],
  "buffers": [
    {
      "uri": "moss_01.bin",
      "byteLength": 7752
    }
  ],
  "materials": [
    {
      "name": "moss_01",
      "alphaMode": "MASK",
      "alphaCutoff": 0.5,
      "doubleSided": true,
      "pbrMetallicRoughness": {
        "metallicFactor": 0,
        "baseColorTexture": {
          "index": 0
        },
        "metallicRoughnessTexture": {
          "index": 2
        }
      },
      "normalTexture": {
        "index": 1,
        "scale": 2
      },
      "extensions": {
        "KHR_materials_ior": {
          "ior": 1.4500000476837158
        },
        "KHR_materials_specular": {
          "specularFactor": 0
        }
      }
    }
  ],
  "meshes": [
    {
      "name": "Plane.003",
      "primitives": [
        {
          "attributes": {
            "POSITION": 12,
            "NORMAL": 13,
            "TEXCOORD_0": 14
          },
          "mode": 4,
          "material": 0,
          "indices": 0
        }
      ]
    },
    {
      "name": "Plane.004",
      "primitives": [
        {
          "attributes": {
            "POSITION": 15,
            "NORMAL": 16,
            "TEXCOORD_0": 17
          },
          "mode": 4,
          "material": 0,
          "indices": 1
        }
      ]
    },
    {
      "name": "Plane.005",
      "primitives": [
        {
          "attributes": {
            "POSITION": 18,
            "NORMAL": 19,
            "TEXCOORD_0": 20
          },
          "mode": 4,
          "material": 0,
          "indices": 2
        }
      ]
    },
    {
      "name": "Plane.006",
      "primitives": [
        {
          "attributes": {
            "POSITION": 21,
            "NORMAL": 22,
            "TEXCOORD_0": 23
          },
          "mode": 4,
          "material": 0,
          "indices": 3
        }
      ]
    },
    {
      "name": "Plane.007",
      "primitives": [
        {
          "attributes": {
            "POSITION": 24,
            "NORMAL": 25,
            "TEXCOORD_0": 26
          },
          "mode": 4,
          "material": 0,
          "indices": 4
        }
      ]
    },
    {
      "name": "Plane.008",
      "primitives": [
        {
          "attributes": {
            "POSITION": 27,
            "NORMAL": 28,
            "TEXCOORD_0": 29
          },
          "mode": 4,
          "material": 0,
          "indices": 5
        }
      ]
    },
    {
      "name": "Plane.009",
      "primitives": [
        {
          "attributes": {
            "POSITION": 30,
            "NORMAL": 31,
            "TEXCOORD_0": 32
          },
          "mode": 4,
          "material": 0,
          "indices": 6
        }
      ]
    },
    {
      "name": "Plane.010",
      "primitives": [
        {
          "attributes": {
            "POSITION": 33,
            "NORMAL": 34,
            "TEXCOORD_0": 35
          },
          "mode": 4,
          "material": 0,
          "indices": 7
        }
      ]
    },
    {
      "name": "Plane.011",
      "primitives": [
        {
          "attributes": {
            "POSITION": 36,
            "NORMAL": 37,
            "TEXCOORD_0": 38
          },
          "mode": 4,
          "material": 0,
          "indices": 8
        }
      ]
    },
    {
      "name": "Plane.032",
      "primitives": [
        {
          "attributes": {
            "POSITION": 39,
            "NORMAL": 40,
            "TEXCOORD_0": 41
          },
          "mode": 4,
          "material": 0,
          "indices": 9
        }
      ]
    },
    {
      "name": "Plane.035",
      "primitives": [
        {
          "attributes": {
            "POSITION": 42,
            "NORMAL": 43,
            "TEXCOORD_0": 44
          },
          "mode": 4,
          "material": 0,
          "indices": 10
        }
      ]
    },
    {
      "name": "Plane.040",
      "primitives": [
        {
          "attributes": {
            "POSITION": 45,
            "NORMAL": 46,
            "TEXCOORD_0": 47
          },
          "mode": 4,
          "material": 0,
          "indices": 11
        }
      ]
    }
  ],
  "nodes": [
    {
      "name": "moss_01_c_LOD0",
      "translation": [
        0.03950319066643715,
        -0.00007909760461188853,
        0.00013212340127211064
      ],
      "mesh": 0
    },
    {
      "name": "moss_01_d_LOD0",
      "translation": [
        0.05397823825478554,
        -0.00007909760461188853,
        0.00013212340127211064
      ],
      "mesh": 1
    },
    {
      "name": "moss_01_e_LOD0",
      "translation": [
        0.08029040694236755,
        0,
        0
      ],
      "mesh": 2
    },
    {
      "name": "moss_01_f_LOD0",
      "translation": [
        0.09703865647315979,
        0,
        0
      ],
      "mesh": 3
    },
    {
      "name": "moss_01_b_LOD0",
      "translation": [
        0.01784023828804493,
        0,
        0
      ],
      "mesh": 4
    },
    {
      "name": "moss_01_g_LOD0",
      "translation": [
        0.11098906397819519,
        0,
        0
      ],
      "mesh": 5
    },
    {
      "name": "moss_01_a_LOD0",
      "translation": [
        -0.000013512879377231002,
        0,
        0
      ],
      "mesh": 6
    },
    {
      "name": "moss_01_h_LOD0",
      "translation": [
        0.1563161313533783,
        0,
        0
      ],
      "mesh": 7
    },
    {
      "name": "moss_01_i_LOD0",
      "translation": [
        0.17438122630119324,
        0,
        0
      ],
      "mesh": 8
    },
    {
      "name": "moss_01_j_LOD0",
      "translation": [
        0.20222729444503784,
        -0.00007900998753029853,
        0.00013214698992669582
      ],
      "mesh": 9
    },
    {
      "name": "moss_01_tall_a_LOD0",
      "translation": [
        0.12331497669219971,
        0,
        0
      ],
      "mesh": 10
    },
    {
      "name": "moss_01_tall_b_LOD0",
      "translation": [
        0.14413690567016602,
        0,
        0
      ],
      "mesh": 11
    }
  ],
  "scenes": [
    {
      "name": "Scene",
      "nodes": [
        0,
        1,
        2,
        3,
        4,
        5,
        6,
        7,
        8,
        9,
        10,
        11
      ]
    }
  ],
  "scene": 0,
  "extensionsUsed": [
    "KHR_materials_ior",
    "KHR_materials_specular"
  ]
}