{
  "asset": {
    "generator": "glTF-Transform v4.4.2",
    "version": "2.0"
  },
  "accessors": [
    {
      "type": "SCALAR",
      "componentType": 5123,
      "count": 249384,
      "bufferView": 0,
      "byteOffset": 0
    },
    {
      "type": "VEC3",
      "componentType": 5126,
      "count": 46112,
      "max": [
        2.1269466876983643,
        0.7267211079597473,
        0.5553070902824402
      ],
      "min": [
        -1.9244168996810913,
        -0.3283522427082062,
        -0.500821590423584
      ],
      "bufferView": 1,
      "byteOffset": 0
    },
    {
      "type": "VEC3",
      "componentType": 5126,
      "count": 46112,
      "bufferView": 1,
      "byteOffset": 12
    },
    {
      "type": "VEC2",
      "componentType": 5126,
      "count": 46112,
      "bufferView": 1,
      "byteOffset": 24
    }
  ],
  "bufferViews": [
    {
      "buffer": 0,
      "byteOffset": 0,
      "byteLength": 498768,
      "target": 34963
    },
    {
      "buffer": 0,
      "byteOffset": 498768,
      "byteLength": 1475584,
      "byteStride": 32,
      "target": 34962
    }
  ],
  "samplers": [
    {
      "magFilter": 9729,
      "minFilter": 9987,
      "wrapS": 10497,
      "wrapT": 10497
    }
  ],
  "textures": [
    {
      "source": 1,
      "sampler": 0
    },
    {
      "source": 0,
      "sampler": 0
    },
    {
      "source": 2,
      "sampler": 0
    }
  ],
  "images": [
    {
      "name": "dead_tree_trunk_02_nor_gl",
      "mimeType": "image/jpeg",
      "uri": "textures/dead_tree_trunk_02_nor_gl_1k.jpg"
    },
    {
      "name": "dead_tree_trunk_02_diff",
      "mimeType": "image/jpeg",
      "uri": "textures/dead_tree_trunk_02_diff_1k.jpg"
    },
    {
      "name": "dead_tree_trunk_02_rough",
      "mimeType": "image/jpeg",
      "uri": "textures/dead_tree_trunk_02_arm_1k.jpg"
    }
  ],
  "buffers": [
    {
      "uri": "dead_tree_trunk_02.bin",
      "byteLength": 1974352
    }
  ],
  "materials": [
    {
      "name": "dead_tree_trunk_02",
      "doubleSided": true,
      "pbrMetallicRoughness": {
        "metallicFactor": 0,
        "baseColorTexture": {
          "index": 0
        },
        "metallicRoughnessTexture": {
          "index": 2
        }
      },
      "normalTexture": {
        "index": 1
      }
    }
  ],
  "meshes": [
    {
      "name": "fallen_log_5m_PROXY.002",
      "primitives": [
        {
          "attributes": {
            "POSITION": 1,
            "NORMAL": 2,
            "TEXCOORD_0": 3
          },
          "mode": 4,
          "material": 0,
          "indices": 0
        }
      ]
    }
  ],
  "nodes": [
    {
      "name": "dead_tree_trunk_02",
      "mesh": 0
    }
  ],
  "scenes": [
    {
      "name": "Scene",
      "nodes": [
        0
      ]
    }
  ],
  "scene": 0
}