{
  "asset": {
    "generator": "glTF-Transform v4.4.2",
    "version": "2.0"
  },
  "accessors": [
    {
      "type": "SCALAR",
      "componentType": 5123,
      "count": 187035,
      "bufferView": 0,
      "byteOffset": 0
    },
    {
      "type": "VEC3",
      "componentType": 5126,
      "count": 33119,
      "max": [
        0.8038125038146973,
        0.28860294818878174,
        0.7182251811027527
      ],
      "min": [
        -0.7178851366043091,
        -0.23348920047283173,
        -0.6743079423904419
      ],
      "bufferView": 1,
      "byteOffset": 0
    },
    {
      "type": "VEC2",
      "componentType": 5126,
      "count": 33119,
      "bufferView": 1,
      "byteOffset": 12
    },
    {
      "type": "VEC3",
      "componentType": 5126,
      "count": 33119,
      "bufferView": 1,
      "byteOffset": 20
    }
  ],
  "bufferViews": [
    {
      "buffer": 0,
      "byteOffset": 0,
      "byteLength": 374072,
      "target": 34963
    },
    {
      "buffer": 0,
      "byteOffset": 374072,
      "byteLength": 1059808,
      "byteStride": 32,
      "target": 34962
    }
  ],
  "samplers": [
    {
      "magFilter": 9729,
      "minFilter": 9987,
      "wrapS": 10497,
      "wrapT": 10497
    }
  ],
  "textures": [
    {
      "source": 1,
      "sampler": 0
    },
    {
      "source": 0,
      "sampler": 0
    },
    {
      "source": 2,
      "sampler": 0
    }
  ],
  "images": [
    {
      "name": "tree_stump_02_nor_gl",
      "mimeType": "image/jpeg",
      "uri": "textures/tree_stump_02_nor_gl_1k.jpg"
    },
    {
      "name": "tree_stump_02_diff",
      "mimeType": "image/jpeg",
      "uri": "textures/tree_stump_02_diff_1k.jpg"
    },
    {
      "name": "tree_stump_02_rough",
      "mimeType": "image/jpeg",
      "uri": "textures/tree_stump_02_arm_1k.jpg"
    }
  ],
  "buffers": [
    {
      "uri": "tree_stump_02.bin",
      "byteLength": 1433880
    }
  ],
  "materials": [
    {
      "name": "tree_stump_02",
      "doubleSided": true,
      "pbrMetallicRoughness": {
        "metallicFactor": 0,
        "baseColorTexture": {
          "index": 0
        },
        "metallicRoughnessTexture": {
          "index": 2
        }
      },
      "normalTexture": {
        "index": 1
      }
    }
  ],
  "meshes": [
    {
      "name": "tt_02_reproject.001",
      "primitives": [
        {
          "attributes": {
            "POSITION": 1,
            "TEXCOORD_0": 2,
            "NORMAL": 3
          },
          "mode": 4,
          "material": 0,
          "indices": 0
        }
      ]
    }
  ],
  "nodes": [
    {
      "name": "tree_stump_02",
      "mesh": 0
    }
  ],
  "scenes": [
    {
      "name": "Scene",
      "nodes": [
        0
      ]
    }
  ],
  "scene": 0
}