{
  "asset": {
    "generator": "glTF-Transform v4.4.2",
    "version": "2.0"
  },
  "accessors": [
    {
      "type": "SCALAR",
      "componentType": 5123,
      "count": 305406,
      "bufferView": 0,
      "byteOffset": 0
    },
    {
      "type": "VEC3",
      "componentType": 5126,
      "count": 52593,
      "max": [
        1.5119144916534424,
        0.2626980245113373,
        0.10672463476657867
      ],
      "min": [
        -1.5391005277633667,
        -0.02773353084921837,
        -0.17080287635326385
      ],
      "bufferView": 1,
      "byteOffset": 0
    },
    {
      "type": "VEC2",
      "componentType": 5126,
      "count": 52593,
      "bufferView": 1,
      "byteOffset": 12
    },
    {
      "type": "VEC3",
      "componentType": 5126,
      "count": 52593,
      "bufferView": 1,
      "byteOffset": 20
    }
  ],
  "bufferViews": [
    {
      "buffer": 0,
      "byteOffset": 0,
      "byteLength": 610812,
      "target": 34963
    },
    {
      "buffer": 0,
      "byteOffset": 610812,
      "byteLength": 1682976,
      "byteStride": 32,
      "target": 34962
    }
  ],
  "samplers": [
    {
      "magFilter": 9729,
      "minFilter": 9987,
      "wrapS": 10497,
      "wrapT": 10497
    }
  ],
  "textures": [
    {
      "source": 1,
      "sampler": 0
    },
    {
      "source": 0,
      "sampler": 0
    },
    {
      "source": 2,
      "sampler": 0
    }
  ],
  "images": [
    {
      "name": "dead_tree_trunk_nor_gl",
      "mimeType": "image/jpeg",
      "uri": "textures/dead_tree_trunk_nor_gl_2k.jpg"
    },
    {
      "name": "dead_tree_trunk_diff",
      "mimeType": "image/jpeg",
      "uri": "textures/dead_tree_trunk_diff_2k.jpg"
    },
    {
      "name": "dead_tree_trunk_rough",
      "mimeType": "image/jpeg",
      "uri": "textures/dead_tree_trunk_arm_2k.jpg"
    }
  ],
  "buffers": [
    {
      "uri": "dead_tree_trunk.bin",
      "byteLength": 2293788
    }
  ],
  "materials": [
    {
      "name": "dead_tree_trunk",
      "doubleSided": true,
      "pbrMetallicRoughness": {
        "metallicFactor": 0,
        "baseColorTexture": {
          "index": 0
        },
        "metallicRoughnessTexture": {
          "index": 2
        }
      },
      "normalTexture": {
        "index": 1
      }
    }
  ],
  "meshes": [
    {
      "name": "dead_tree",
      "primitives": [
        {
          "attributes": {
            "POSITION": 1,
            "TEXCOORD_0": 2,
            "NORMAL": 3
          },
          "mode": 4,
          "material": 0,
          "indices": 0
        }
      ]
    }
  ],
  "nodes": [
    {
      "name": "dead_tree_trunk",
      "mesh": 0
    }
  ],
  "scenes": [
    {
      "name": "Scene",
      "nodes": [
        0
      ]
    }
  ],
  "scene": 0
}