{
  "asset": {
    "generator": "glTF-Transform v4.4.2",
    "version": "2.0"
  },
  "accessors": [
    {
      "type": "SCALAR",
      "componentType": 5123,
      "count": 9984,
      "bufferView": 0,
      "byteOffset": 0
    },
    {
      "type": "SCALAR",
      "componentType": 5123,
      "count": 24264,
      "bufferView": 0,
      "byteOffset": 19968
    },
    {
      "type": "VEC3",
      "componentType": 5126,
      "count": 1861,
      "max": [
        0.09023720771074295,
        0.17840638756752014,
        0.09023720771074295
      ],
      "min": [
        -0.09023720771074295,
        0.12897279858589172,
        -0.09023720771074295
      ],
      "bufferView": 1,
      "byteOffset": 0
    },
    {
      "type": "VEC3",
      "componentType": 5126,
      "count": 1861,
      "bufferView": 1,
      "byteOffset": 12
    },
    {
      "type": "VEC2",
      "componentType": 5126,
      "count": 1861,
      "bufferView": 1,
      "byteOffset": 24
    },
    {
      "type": "VEC3",
      "componentType": 5126,
      "count": 4450,
      "max": [
        0.13146506249904633,
        0.13169820606708527,
        0.09021023660898209
      ],
      "min": [
        -0.13146506249904633,
        0.00014360249042510986,
        -0.09021023660898209
      ],
      "bufferView": 2,
      "byteOffset": 0
    },
    {
      "type": "VEC3",
      "componentType": 5126,
      "count": 4450,
      "bufferView": 2,
      "byteOffset": 12
    },
    {
      "type": "VEC2",
      "componentType": 5126,
      "count": 4450,
      "bufferView": 2,
      "byteOffset": 24
    }
  ],
  "bufferViews": [
    {
      "buffer": 0,
      "byteOffset": 0,
      "byteLength": 68496,
      "target": 34963
    },
    {
      "buffer": 0,
      "byteOffset": 68496,
      "byteLength": 59552,
      "byteStride": 32,
      "target": 34962
    },
    {
      "buffer": 0,
      "byteOffset": 128048,
      "byteLength": 142400,
      "byteStride": 32,
      "target": 34962
    }
  ],
  "samplers": [
    {
      "magFilter": 9729,
      "minFilter": 9987,
      "wrapS": 10497,
      "wrapT": 10497
    }
  ],
  "textures": [
    {
      "source": 1,
      "sampler": 0
    },
    {
      "source": 0,
      "sampler": 0
    },
    {
      "source": 2,
      "sampler": 0
    }
  ],
  "images": [
    {
      "name": "pot_enamel_01_nor_gl",
      "mimeType": "image/jpeg",
      "uri": "textures/pot_enamel_01_nor_gl_1k.jpg"
    },
    {
      "name": "pot_enamel_01_diff",
      "mimeType": "image/jpeg",
      "uri": "textures/pot_enamel_01_diff_1k.jpg"
    },
    {
      "name": "pot_enamel_01_metal-pot_enamel_01_rough",
      "mimeType": "image/jpeg",
      "uri": "textures/pot_enamel_01_arm_1k.jpg"
    }
  ],
  "buffers": [
    {
      "uri": "pot_enamel_01.bin",
      "byteLength": 270448
    }
  ],
  "materials": [
    {
      "name": "pot_enamel_01",
      "doubleSided": true,
      "pbrMetallicRoughness": {
        "baseColorTexture": {
          "index": 0
        },
        "metallicRoughnessTexture": {
          "index": 2
        }
      },
      "normalTexture": {
        "index": 1
      }
    }
  ],
  "meshes": [
    {
      "name": "Cylinder.001",
      "primitives": [
        {
          "attributes": {
            "POSITION": 2,
            "NORMAL": 3,
            "TEXCOORD_0": 4
          },
          "mode": 4,
          "material": 0,
          "indices": 0
        }
      ]
    },
    {
      "name": "Cube.001",
      "primitives": [
        {
          "attributes": {
            "POSITION": 5,
            "NORMAL": 6,
            "TEXCOORD_0": 7
          },
          "mode": 4,
          "material": 0,
          "indices": 1
        }
      ]
    }
  ],
  "nodes": [
    {
      "name": "pot_enamel_01_lid",
      "mesh": 0
    },
    {
      "name": "pot_enamel_01_base",
      "mesh": 1
    }
  ],
  "scenes": [
    {
      "name": "Scene",
      "nodes": [
        0,
        1
      ]
    }
  ],
  "scene": 0
}