{
  "asset": {
    "generator": "glTF-Transform v4.4.2",
    "version": "2.0"
  },
  "accessors": [
    {
      "type": "SCALAR",
      "componentType": 5123,
      "count": 66828,
      "bufferView": 0,
      "byteOffset": 0
    },
    {
      "type": "VEC3",
      "componentType": 5126,
      "count": 15352,
      "max": [
        0.19134199619293213,
        0.11650627851486206,
        0.14707215130329132
      ],
      "min": [
        -0.19188226759433746,
        -0.0009166551753878593,
        -0.14794304966926575
      ],
      "bufferView": 1,
      "byteOffset": 0
    },
    {
      "type": "VEC3",
      "componentType": 5126,
      "count": 15352,
      "bufferView": 1,
      "byteOffset": 12
    },
    {
      "type": "VEC2",
      "componentType": 5126,
      "count": 15352,
      "bufferView": 1,
      "byteOffset": 24
    }
  ],
  "bufferViews": [
    {
      "buffer": 0,
      "byteOffset": 0,
      "byteLength": 133656,
      "target": 34963
    },
    {
      "buffer": 0,
      "byteOffset": 133656,
      "byteLength": 491264,
      "byteStride": 32,
      "target": 34962
    }
  ],
  "samplers": [
    {
      "magFilter": 9729,
      "minFilter": 9987,
      "wrapS": 10497,
      "wrapT": 10497
    }
  ],
  "textures": [
    {
      "source": 1,
      "sampler": 0
    },
    {
      "source": 0,
      "sampler": 0
    },
    {
      "source": 2,
      "sampler": 0
    }
  ],
  "images": [
    {
      "name": "wicker_basket_01_nor_gl",
      "mimeType": "image/jpeg",
      "uri": "textures/wicker_basket_01_nor_gl_1k.jpg"
    },
    {
      "name": "wicker_basket_01_diff",
      "mimeType": "image/jpeg",
      "uri": "textures/wicker_basket_01_diff_1k.jpg"
    },
    {
      "name": "wicker_basket_01_rough",
      "mimeType": "image/jpeg",
      "uri": "textures/wicker_basket_01_arm_1k.jpg"
    }
  ],
  "buffers": [
    {
      "uri": "wicker_basket_01.bin",
      "byteLength": 624920
    }
  ],
  "materials": [
    {
      "name": "wicker_basket_01",
      "doubleSided": true,
      "pbrMetallicRoughness": {
        "baseColorTexture": {
          "index": 0
        },
        "metallicRoughnessTexture": {
          "index": 2
        }
      },
      "normalTexture": {
        "index": 1
      }
    }
  ],
  "meshes": [
    {
      "name": "Vert.001",
      "primitives": [
        {
          "attributes": {
            "POSITION": 1,
            "NORMAL": 2,
            "TEXCOORD_0": 3
          },
          "mode": 4,
          "material": 0,
          "indices": 0
        }
      ]
    }
  ],
  "nodes": [
    {
      "name": "wicker_basket_01",
      "mesh": 0
    }
  ],
  "scenes": [
    {
      "name": "Scene",
      "nodes": [
        0
      ]
    }
  ],
  "scene": 0
}